HIERARCHY
ROOT RootJoint
{
    OFFSET   0.000000   0.000000   0.000000
    CHANNELS 6 Xposition Yposition Zposition Xrotation Yrotation Zrotation
    JOINT pelvis_lowerback
    {
        OFFSET   0.000000   0.093605   0.000000
        CHANNELS 3 Xrotation Yrotation Zrotation
        JOINT lowerback_torso
        {
            OFFSET   0.000000   0.100000   0.000000
            CHANNELS 3 Xrotation Yrotation Zrotation
            JOINT torso_head
            {
                OFFSET   0.000000   0.282350   0.000000
                CHANNELS 3 Xrotation Yrotation Zrotation
                End Site
                {
                    OFFSET   0.000000   0.192650   0.000000
                }
            }
            JOINT rTorso_Clavicle
            {
                OFFSET  -0.001000   0.157500   0.000000
                CHANNELS 3 Xrotation Yrotation Zrotation
                JOINT rShoulder
                {
                    OFFSET  -0.117647   0.000000   0.000000
                    CHANNELS 3 Xrotation Yrotation Zrotation
                    JOINT rElbow
                    {
                        OFFSET  -0.245000   0.000000   0.000000
                        CHANNELS 3 Xrotation Yrotation Zrotation
                        JOINT rWrist
                        {
                            OFFSET  -0.240000   0.000000   0.000000
                            CHANNELS 3 Xrotation Yrotation Zrotation
                            End Site
                            {
                                OFFSET  -0.116353  -0.002500   0.000000
                            }
                        }
                    }
                }
            }
            JOINT lTorso_Clavicle
            {
                OFFSET   0.001000   0.157500   0.000000
                CHANNELS 3 Xrotation Yrotation Zrotation
                JOINT lShoulder
                {
                    OFFSET   0.117647   0.000000   0.000000
                    CHANNELS 3 Xrotation Yrotation Zrotation
                    JOINT lElbow
                    {
                        OFFSET   0.245000   0.000000   0.000000
                        CHANNELS 3 Xrotation Yrotation Zrotation
                        JOINT lWrist
                        {
                            OFFSET   0.240000   0.000000   0.000000
                            CHANNELS 3 Xrotation Yrotation Zrotation
                            End Site
                            {
                                OFFSET   0.116353  -0.002500   0.000000
                            }
                        }
                    }
                }
            }
        }
    }
    JOINT rHip
    {
        OFFSET  -0.100000  -0.051395   0.000000
        CHANNELS 3 Xrotation Yrotation Zrotation
        JOINT rKnee
        {
            OFFSET   0.000000  -0.410000   0.000000
            CHANNELS 3 Xrotation Yrotation Zrotation
            JOINT rAnkle
            {
                OFFSET   0.000000  -0.390000   0.000000
                CHANNELS 3 Xrotation Yrotation Zrotation
                JOINT rToeJoint
                {
                    OFFSET   0.000000  -0.050000   0.130000
                    CHANNELS 3 Xrotation Yrotation Zrotation
                    End Site
                    {
                        OFFSET  -0.010000   0.002000   0.060000
                    }
                }
            }
        }
    }
    JOINT lHip
    {
        OFFSET   0.100000  -0.051395   0.000000
        CHANNELS 3 Xrotation Yrotation Zrotation
        JOINT lKnee
        {
            OFFSET   0.000000  -0.410000   0.000000
            CHANNELS 3 Xrotation Yrotation Zrotation
            JOINT lAnkle
            {
                OFFSET   0.000000  -0.390000   0.000000
                CHANNELS 3 Xrotation Yrotation Zrotation
                JOINT lToeJoint
                {
                    OFFSET   0.000000  -0.050000   0.130000
                    CHANNELS 3 Xrotation Yrotation Zrotation
                    End Site
                    {
                        OFFSET   0.010000   0.002000   0.060000
                    }
                }
            }
        }
    }
}
MOTION
Frames: 15
Frame Time:   0.008333
 -2.791491   0.902980   4.823122  14.491837  30.346876  -2.973124   5.779010  -1.266073   2.370561  -0.770601  -0.478498   1.816892  -5.265132  -0.818372  -2.941731   0.218106   6.716819  -0.085798  -2.035519  16.063737  47.063050   0.007639  43.247247  -0.001242  -1.276777   0.084509   1.996652   4.168537  -8.298834   1.995723  23.245583 -29.380010 -29.987680   0.024310 -66.183993   0.033723   1.938582  -5.147476  -8.048668 -32.350474  -2.184273  -6.636035  26.890240  -0.000916   0.004032  -8.873377 -11.060559   3.441059  -1.970851   0.000484   0.003515  -1.932157   3.756794   5.936112  10.647448  -0.002544   0.006965  -1.053879   6.533277  -3.735783 -27.292414   0.009266  -0.015533
 -2.793310   0.904355   4.827933  14.932823  30.908877  -3.037758   5.451139  -1.160179   2.398632  -0.699694  -0.551744   1.960119  -5.385520  -0.850042  -3.146148   0.250369   6.630607  -0.053655  -2.214786  15.651852  46.008200   0.011386  42.421221  -0.001040  -1.191562  -0.039850   2.399566   4.118936  -8.207308   1.903825  23.557455 -28.323517 -29.429617   0.042813 -64.108057   0.049492   1.897665  -5.697031  -8.396568 -32.175465  -2.212608  -6.686640  26.419171  -0.000198   0.000919  -8.447622 -11.277265   3.320276  -1.754363   0.000367   0.003354  -2.561862   3.757621   6.077313  11.058022  -0.002655   0.007915   0.234259   6.021018  -4.348994 -28.209969   0.006703  -0.014924
 -2.795144   0.906036   4.832625  15.421539  31.416573  -3.091750   5.146530  -1.023362   2.387708  -0.659708  -0.593828   2.068750  -5.493981  -0.879044  -3.342711   0.231236   6.529769  -0.141722  -2.407861  15.239807  44.912028   0.015378  41.637287  -0.000800  -1.104293  -0.227710   2.631944   4.049873  -8.063457   1.940973  23.862670 -27.204652 -28.819502   0.057140 -62.075028   0.060092   1.918869  -5.780101  -8.579779 -31.978619  -2.234779  -6.756967  25.795152   0.000641  -0.002024  -8.092526 -11.483378   3.199890  -1.523032   0.000219   0.003196  -3.226721   3.743479   6.175740  11.434496  -0.002717   0.008260   1.494748   5.503248  -4.912961 -28.314032   0.005309  -0.012157
 -2.796924   0.907848   4.837309  15.925898  31.881682  -3.135597   4.852296  -0.869189   2.353110  -0.640346  -0.607120   2.152947  -5.586792  -0.906014  -3.528112   0.185249   6.416493  -0.311708  -2.604770  14.839888  43.821690   0.018789  40.903925  -0.000579  -1.018143  -0.431160   2.715975   3.978289  -7.877712   2.066374  24.152078 -26.086612 -28.209061   0.066441 -60.149075   0.065983   1.970077  -5.645563  -8.661242 -31.761872  -2.256390  -6.837926  25.096741   0.001490  -0.004424  -7.797951 -11.677195   3.079633  -1.315567   0.000079   0.002969  -3.884033   3.717907   6.245525  11.773675  -0.002724   0.008179   2.710445   4.997025  -5.427437 -27.855309   0.004659  -0.008844
 -2.798619   0.909681   4.842034  16.429128  32.316619  -3.171187   4.562687  -0.706194   2.304649  -0.638558  -0.599915   2.219660  -5.667749  -0.931015  -3.702405   0.123681   6.296822  -0.529890  -2.801767  14.457719  42.759575   0.021362  40.218977  -0.000438  -0.934516  -0.635146   2.699752   3.909357  -7.666732   2.243306  24.421595 -24.995477 -27.619093   0.071594 -58.337730   0.068478   2.033539  -5.417596  -8.689061 -31.529316  -2.278487  -6.923944  24.371296   0.002269  -0.006237  -7.547276 -11.859213   2.962217  -1.129463  -0.000041   0.002718  -4.518513   3.685971   6.297029  12.083739  -0.002690   0.007870   3.873540   4.507402  -5.895922 -27.019525   0.004407  -0.005653
 -2.800219   0.911467   4.846826  16.921543  32.730015  -3.200469   4.275555  -0.539812   2.248977  -0.652541  -0.578414   2.273773  -5.740191  -0.954139  -3.866001   0.052937   6.176154  -0.773514  -2.996986  14.096829  41.738814   0.023055  39.579884  -0.000390  -0.854186  -0.833276   2.618376   3.844525  -7.443207   2.447943  24.669519 -23.945491 -27.059253   0.073578 -56.639768   0.068625   2.101324  -5.150251  -8.688712 -31.285315  -2.301141  -7.010794  23.649381   0.002929  -0.007520  -7.328522 -12.029895   2.849362  -0.961562  -0.000139   0.002470  -5.123022   3.651027   6.337548  12.371179  -0.002630   0.007454   4.980461   4.037506  -6.322061 -25.934599   0.004318  -0.002796
 -2.801720   0.913162   4.851690  17.397801  33.127686  -3.225295   3.990362  -0.373494   2.190732  -0.680665  -0.546875   2.318926  -5.806392  -0.975496  -4.019417  -0.023078   6.058556  -1.027564  -3.189324  13.759180  40.766788   0.023935  38.984177  -0.000420  -0.777580  -1.021314   2.495755   3.783840  -7.216016   2.665080  24.895572 -22.944511 -26.533645   0.073240 -55.051311   0.067184   2.169414  -4.870766  -8.673742 -31.033769  -2.324330  -7.095377  22.950226   0.003449  -0.008359  -7.133245 -12.189763   2.742103  -0.809389  -0.000214   0.002239  -5.694410   3.615189   6.372170  12.640244  -0.002551   0.006998   6.030344   3.589277  -6.709367 -24.686097   0.004253  -0.000297
 -2.803085   0.914793   4.856469  17.996466  33.553822  -3.293242   3.460738  -0.209876   2.134676  -0.571686  -0.564281   2.320719  -5.943198  -1.009847  -4.187206  -0.038351   5.880392  -1.293535  -3.751169  13.307730  39.392130   0.034098  38.045652  -0.004125  -0.642785  -0.990174   3.053330   3.697027  -6.942094   2.804988  24.963890 -21.788360 -25.649420   0.092489 -52.665083   0.078948   2.156941  -5.348279  -9.139232 -30.812333  -2.372043  -7.236024  21.979463   0.004193  -0.009871  -6.080642 -12.512698   2.635950  -0.393987   0.000129   0.001807  -6.632030   3.865060   6.440741  13.816553  -0.003667   0.013680   6.290957   3.194681  -7.456176 -22.376613   0.010113   0.014082
 -2.804224   0.916854   4.860944  18.663533  33.800494  -3.405611   2.930945   0.004029   2.111212  -0.532975  -0.540761   2.303265  -6.080732  -1.038568  -4.344694  -0.112088   5.686617  -1.692234  -4.308184  12.855924  37.950604   0.043732  37.140130  -0.007875  -0.504500  -1.093261   3.342662   3.600328  -6.624735   3.023318  25.028382 -20.590961 -24.752379   0.106659 -50.346540   0.085062   2.210533  -5.368197  -9.434689 -30.593354  -2.372529  -7.294998  20.936458   0.005161  -0.010464  -5.908983 -12.785300   2.188426  -0.404120   0.000084   0.001445  -7.547117   4.120186   6.517593  15.018301  -0.004707   0.017398   6.532504   2.827281  -8.151767 -20.270165   0.014519   0.021278
 -2.805102   0.919001   4.865310  19.353005  34.001932  -3.482602   2.385065   0.197721   2.046527  -0.540075  -0.515402   2.263460  -6.202947  -1.066490  -4.488732  -0.209913   5.472343  -2.176004  -4.846410  12.421737  36.520012   0.051373  36.290069  -0.011115  -0.368126  -1.244298   3.432920   3.504317  -6.277368   3.326804  25.087587 -19.402510 -23.871504   0.116061 -48.156082   0.087303   2.293839  -5.191481  -9.641202 -30.350768  -2.342140  -7.408500  19.780440   0.005945  -0.010818  -5.653902 -13.022139   1.819190  -0.410508   0.000058   0.001156  -8.371891   4.357591   6.556706  16.163071  -0.005638   0.019367   6.753969   2.480506  -8.800100 -18.343086   0.017088   0.024961
 -2.805758   0.921099   4.869639  20.049144  34.190353  -3.533086   1.824471   0.369414   1.954334  -0.589653  -0.496434   2.204443  -6.314483  -1.093218  -4.624354  -0.319932   5.244784  -2.703691  -5.362120  12.009783  35.126483   0.056782  35.493571  -0.013756  -0.235702  -1.414906   3.391393   3.407120  -5.919200   3.681810  25.134686 -18.246462 -23.019294   0.121550 -46.097874   0.087287   2.389329  -4.930495  -9.787852 -30.105695  -2.299307  -7.568038  18.604837   0.006459  -0.010918  -5.371794 -13.240357   1.496798  -0.417406   0.000038   0.000925  -9.101502   4.582002   6.588823  17.247010  -0.006565   0.020386   6.956784   2.154099  -9.404319 -16.580337   0.017922   0.026818
 -2.806224   0.923088   4.873951  20.743417  34.375738  -3.565249   1.253355   0.522050   1.845783  -0.676869  -0.484328   2.131700  -6.418841  -1.118287  -4.753011  -0.436734   5.013070  -3.249102  -5.855234  11.624024  33.785046   0.060045  34.748424  -0.015793  -0.108336  -1.592549   3.262321   3.308225  -5.563647   4.062947  25.166669 -17.137324 -22.203684   0.123712 -44.169556   0.085780   2.488319  -4.635290  -9.887788 -29.867202  -2.251575  -7.762051  17.450631   0.006725  -0.010821  -5.087965 -13.447557   1.205361  -0.426235   0.000020   0.000740  -9.740386   4.794287   6.631352  18.273076  -0.007503   0.020824   7.142902   1.847581  -9.967306 -14.966717   0.017428   0.027644
 -2.806526   0.924947   4.878241  21.431015  34.559890  -3.584446   0.677094   0.659217   1.728707  -0.795815  -0.477446   2.050000  -6.518047  -1.141518  -4.875061  -0.557388   4.785002  -3.795308  -6.326662  11.267250  32.504436   0.061393  34.052717  -0.017254   0.013177  -1.767436   3.075419   3.208154  -5.219262   4.452847  25.183200 -16.083474 -21.429096   0.123073 -42.366527   0.083169   2.585929  -4.333066  -9.951429 -29.640529  -2.202093  -7.981760  16.337059   0.006788  -0.010569  -4.812652 -13.646230   0.938956  -0.439535   0.000003   0.000592 -10.296495   4.994470   6.691939  19.244149  -0.008423   0.020865   7.314010   1.560185 -10.491850 -13.488697   0.016044   0.027835
 -2.806939   0.926677   4.882356  22.043866  34.683777  -3.724157   0.048690   0.833680   1.735052  -0.701883  -0.489212   2.043582  -6.583721  -1.100783  -5.013688  -0.722709   4.507044  -4.325503  -7.285817  10.814068  30.789825   0.075574  33.026761  -0.025529   0.139378  -1.720129   3.637024   2.950956  -4.815236   4.687078  24.946139 -14.921799 -20.380408   0.143369 -39.776526   0.095453   2.586564  -4.758852 -10.378146 -29.462408  -2.121020  -8.014211  15.393057   0.006718  -0.010442  -4.289038 -13.811241   0.513082  -0.877214  -0.001265   0.000175 -11.040803   5.357127   7.106115  21.232791  -0.013205   0.028935   6.863438   1.456588 -11.306763 -11.890996   0.016923   0.035042
 -2.807151   0.928324   4.886445  22.626103  34.754455  -3.828082  -0.568813   1.006431   1.715402  -0.624682  -0.494552   2.023904  -6.622743  -1.061840  -5.134837  -0.932497   4.201346  -4.978750  -8.214940  10.376085  29.034057   0.087309  32.044129  -0.031879   0.262956  -1.791680   3.922119   2.691533  -4.378334   5.019680  24.715215 -13.731600 -19.317910   0.157816 -37.282685   0.102886   2.645874  -4.798539 -10.609472 -29.316261  -2.039394  -8.059314  14.528092   0.006560  -0.009672  -3.762348 -13.973031   0.131225  -1.361065  -0.002287   0.000046 -11.646457   5.703401   7.588777  23.252541  -0.018461   0.035126   6.448820   1.369500 -12.066646 -10.436603   0.015697   0.039686
